<?xml version="1.0" encoding="UTF-8" standalone="no"?>
<!-- Created with Inkscape (http://www.inkscape.org/) -->

<svg
   xmlns:dc="http://purl.org/dc/elements/1.1/"
   xmlns:cc="http://creativecommons.org/ns#"
   xmlns:rdf="http://www.w3.org/1999/02/22-rdf-syntax-ns#"
   xmlns:svg="http://www.w3.org/2000/svg"
   xmlns="http://www.w3.org/2000/svg"
   xmlns:sodipodi="http://sodipodi.sourceforge.net/DTD/sodipodi-0.dtd"
   xmlns:inkscape="http://www.inkscape.org/namespaces/inkscape"
   width="389.82324"
   height="268.23083"
   id="svg2"
   version="1.1"
   inkscape:version="0.48.2 r9819"
   sodipodi:docname="topdownRD.svg"
   inkscape:export-filename="/home/shank/Pictures/topdownRD.png"
   inkscape:export-xdpi="90"
   inkscape:export-ydpi="90">
  <defs
     id="defs4" />
  <sodipodi:namedview
     id="base"
     pagecolor="#ffffff"
     bordercolor="#666666"
     borderopacity="1.0"
     inkscape:pageopacity="0.0"
     inkscape:pageshadow="2"
     inkscape:zoom="1.4142136"
     inkscape:cx="208.71289"
     inkscape:cy="106.63485"
     inkscape:document-units="px"
     inkscape:current-layer="layer1"
     showgrid="false"
     showguides="true"
     inkscape:guide-bbox="true"
     fit-margin-top="0"
     fit-margin-left="0"
     fit-margin-right="0"
     fit-margin-bottom="0"
     inkscape:window-width="1850"
     inkscape:window-height="1024"
     inkscape:window-x="68"
     inkscape:window-y="24"
     inkscape:window-maximized="0" />
  <metadata
     id="metadata7">
    <rdf:RDF>
      <cc:Work
         rdf:about="">
        <dc:format>image/svg+xml</dc:format>
        <dc:type
           rdf:resource="http://purl.org/dc/dcmitype/StillImage" />
        <dc:title></dc:title>
      </cc:Work>
    </rdf:RDF>
  </metadata>
  <g
     inkscape:label="Layer 1"
     inkscape:groupmode="layer"
     id="layer1"
     transform="translate(-173.55439,-616.3332)">
    <g
       id="g5263"
       transform="matrix(0.41530811,0,0,0.41530811,101.47584,284.01156)">
      <path
         sodipodi:nodetypes="cccccccccccccccccccccccccccccccccscccccccsccscccccccccccccccccccccscccccccccccccscccccccccccccccscsccccccsccccccccscscccccccccc"
         inkscape:connector-curvature="0"
         id="path5182"
         d="m 228.21871,1129.26 2.76701,-19.0054 14.44689,-8.0803 38.82431,-41.3268 -73.08336,-12.3744 -24.3634,-4.2203 6.82585,-12.9644 15.60341,-21.7007 22.29747,-13.3321 60.78122,12.2426 35.57932,12.6621 26.72729,9.4757 41.26929,20.455 39.03955,27.3589 75.24398,-7.1726 2.47487,-24.572 -7.07106,-33.234 -17.14734,-57.27564 -10.07627,-43.31029 -1.94455,-41.18897 5.12653,-41.7193 9.19238,-21.38998 6.8943,-6.18718 6.36396,8.13172 1.41421,97.05041 6.54074,-13.43503 20.15254,-41.89608 24.39519,-31.46625 12.55114,-8.48528 13.43503,0.53033 2.47487,8.66206 -15.37957,36.76955 -21.2132,39.77476 c 0,0 13.25825,-13.61181 15.55635,-14.67247 2.29809,-1.06066 27.22361,-23.86485 27.22361,-23.86485 l 26.5165,-15.02602 14.31891,-1.59099 3.00521,7.07107 -8.66206,23.5113 -45.78516,63.28605 13.78858,-3.53553 c 0,0 22.09708,-3.88909 22.80419,-3.88909 0.70711,0 6.54074,6.01041 6.54074,6.01041 l -5.65686,15.55635 c 0,0 -51.61879,54.80074 -51.61879,55.50784 0,0.7071 16.08668,-2.1213 17.32412,-2.2981 1.23743,-0.1767 24.74873,-3.7123 24.74873,-3.7123 l 8.13173,5.1266 -2.82843,22.4506 c 0,0 -13.96535,12.0208 -13.25825,12.3744 0.70711,0.3535 21.38998,-0.7071 21.38998,-0.7071 0,0 25.63262,3.3587 26.33973,3.7123 0.70711,0.3535 24.21841,7.7781 24.21841,7.7781 l 38.71409,-18.0312 43.84062,-14.8492 52.67946,-13.0815 8.3085,14.6725 -26.00122,52.5269 -64,9.5 -41.5,11.75 -13,-10.25 -10.25,-1 -13.75,6.5 -12.25,23.5 80.5,36 100.75,-10.5 c 0,0 10.25,23.25 10,24.25 -0.25,1 -1,30.5 -1,30.5 l -2.5,10 -84.5,-15 -54.5,-14.75 -32,13.5 -27.25,6 -26.25,-3.5 -22.25,-10.25 -8.75,-8.5 -7.5,2 9.0625,9.1875 26.9375,22.25 14.6875,22.8125 c 0,0 -0.875,12.6875 -0.875,12.9375 0,0.25 -10.1875,6.6875 -10.1875,6.6875 l -38.875,-7.9375 33.5625,34.6875 23.125,26.8125 -0.125,15.625 -12.5,1.9375 -31.8125,-9.8125 26.0625,31.75 23.375,32.5 7.625,23.25 -2.5,8.375 -20.25,-2.875 -40.1875,-28.4375 -24.5,-24.875 12.25,23.5 c 0,0 17.5,30.125 17.625,30.375 0.125,0.25 7.9375,23.25 7.9375,23.25 0,0 -3.8125,8.25 -4.0625,8.9375 -0.25,0.6875 -11.1875,1.125 -11.1875,1.125 l -15.4375,-11 -18,-23.875 -29.625,-57.5 -2.4375,24.875 0.9375,62.4375 c 0,0 -4.75,12.3125 -4.8125,12.5625 -0.0625,0.25 -7.5625,-0.6875 -7.5625,-0.6875 l -7.4375,-10.1875 -9,-38.25 -0.5,-44.25 9.4375,-45.6875 14.375,-51.4375 12,-41.25 0.375,-26.125 c 0,0 -41,-2.6875 -42,-3.1875 -1,-0.5 -42.5,-13.75 -42.5,-13.75 0,0 -26.75,10.5 -28.75,11 -2,0.5 -21.5,4.25 -21.5,4.25 l -23.25,11 -18.25,5.5 -17.75,-3 -69.5,3.625 -47.625,1.5 -16.75826,-28.9987 -1.61674,-26.7513 62.43075,-0.5273 z"
         style="fill:#a5d9ee;fill-opacity:1;stroke:none" />
      <path
         sodipodi:nodetypes="cssscscscscsscsscscscscsssc"
         inkscape:connector-curvature="0"
         id="path3585"
         d="m 494.78572,1157.4667 c 0.35714,5.3571 11.07143,14.6429 11.07143,37.1429 0,33.2143 -37.67857,107.3214 -37.67857,167.3214 0,60 15.35714,83.9286 23.39285,84.1072 23.04418,0.5121 10.17858,-73.9286 11.60715,-100.1786 0,0 33.03571,91.4286 68.92857,91.4286 32.85714,0 -23.39286,-81.25 -22.67857,-80.7143 0.71428,0.5357 45.17617,48.9286 71.78571,48.9286 39.83921,0 -35,-87.1429 -40,-93.0358 8.92857,4.6429 17.5,6.4286 29.28571,6.4286 47.32144,0 -42.85714,-76.6071 -42.85714,-76.6071 7.90179,4.375 17.89579,6.2499 31.33929,6.2499 28.65885,0 20.66691,-20.3265 3.13989,-40.4593 -14.87574,-17.0874 -36.66998,-33.9104 -48.22918,-39.3621 7.4458,8.945 33.201,27.4776 45.95962,45.209 10.03748,13.9496 9.92148,28.7642 0.87074,28.7642 -17.18837,0 -34.33036,-6.2053 -48.25893,-11.6517 1.60714,13.5714 92.15676,82.5 53.03571,82.5 -17.9142,0 -33.03571,-11.0715 -41.07142,-14.8215 1.60714,5.5357 85.8028,101.7858 56.42857,101.7858 -27.15226,0 -87.32143,-71.4286 -91.42858,-73.5715 11.78572,34.2857 67.343,105.1786 40.71429,105.1786 -29.40515,0 -65.17857,-94.4643 -70.71428,-107.1429 -7.5,12.6786 5.11551,113.5715 -6.60715,114.8215 -5.84496,0.6232 -18.65277,-20.2926 -18.65277,-80.6762 0,-42.6209 35.79563,-134.9763 35.79563,-160.3953 0,-18.4353 -1.96428,-27.6786 -15.17857,-41.25 z"
         style="fill:#84b6e1;fill-opacity:1;stroke:none" />
      <path
         style="fill:#84b6e1;fill-opacity:1;stroke:none"
         d="m 499.67858,1088.7551 c 0.35714,-5.3571 11.07143,-14.6429 11.07143,-37.1429 0,-33.2143 -37.67857,-107.32141 -37.67857,-167.32141 0,-60 15.35714,-83.9286 23.39285,-84.1072 23.04418,-0.5121 10.17858,73.9286 11.60715,100.1786 0,0 33.03571,-91.4286 68.92857,-91.4286 32.85714,0 -23.39286,81.25 -22.67857,80.7143 0.71428,-0.5357 45.17617,-48.9286 71.78571,-48.9286 39.83921,0 -35,87.1429 -40,93.0358 8.92857,-4.6429 17.5,-6.4286 29.28571,-6.4286 47.32144,0 -42.85714,76.60711 -42.85714,76.60711 7.90179,-4.37501 17.89579,-6.24991 31.33929,-6.24991 28.65885,0 20.66691,20.32651 3.13989,40.45931 -14.87574,17.0874 -36.66998,33.9104 -48.22918,39.3621 7.4458,-8.945 33.201,-27.4776 45.95962,-45.209 10.03748,-13.9496 9.92148,-28.7642 0.87074,-28.7642 -17.18837,0 -34.33036,6.2053 -48.25893,11.6517 1.60714,-13.5714 92.15676,-82.50001 53.03571,-82.50001 -17.9142,0 -33.03571,11.0715 -41.07142,14.8215 1.60714,-5.5357 85.8028,-101.7858 56.42857,-101.7858 -27.15226,0 -87.32143,71.4286 -91.42858,73.5715 11.78572,-34.2857 67.343,-105.1786 40.71429,-105.1786 -29.40515,0 -65.17857,94.4643 -70.71428,107.1429 -7.5,-12.6786 5.11551,-113.5715 -6.60715,-114.8215 -5.84496,-0.6232 -18.65277,20.2926 -18.65277,80.6762 0,42.6209 35.79563,134.97631 35.79563,160.39531 0,18.4353 -1.96428,27.6786 -15.17857,41.25 z"
         id="path3589"
         inkscape:connector-curvature="0"
         sodipodi:nodetypes="cssscscscscsscsscscscscsssc" />
      <path
         sodipodi:nodetypes="ccccccc"
         inkscape:connector-curvature="0"
         id="path5075"
         d="m 606.2178,1036.9574 c 20.70813,-0.5051 38.93621,1.7817 66.16499,11.2379 19.69797,-9.3439 86.49431,-37.5019 124.12249,-42.8052 l -4.41942,6.3134 c -26.89531,5.8084 -75.63516,20.9607 -119.32426,41.0375 -36.23922,-12.3744 -59.72528,-12.8795 -71.4683,-9.849 z"
         style="fill:#84b6e1;fill-opacity:1;stroke:none" />
      <path
         inkscape:connector-curvature="0"
         id="path5077"
         d="m 808.50085,1010.2514 4.98762,11.4274 3.97748,-3.9775 -5.68211,-13.132 z"
         style="fill:#84b6e1;fill-opacity:1;stroke:none" />
      <path
         sodipodi:nodetypes="ccccccc"
         inkscape:connector-curvature="0"
         id="path5079"
         d="m 682.35805,1096.1775 c 17.17259,-6.6923 54.92704,-15.2785 64.64976,-14.7734 l 4.54568,-6.0609 c -19.69797,3.5355 -53.41181,9.5964 -67.42768,15.1522 -22.98097,-25.5064 -46.71955,2.3991 -50.00255,21.2132 0,0 3.15673,0.3788 6.56599,0 5.3033,-27.5267 29.92578,-35.9867 41.6688,-15.5311 z"
         style="fill:#84b6e1;fill-opacity:1;stroke:none" />
      <path
         sodipodi:nodetypes="ccsccccccscccc"
         inkscape:connector-curvature="0"
         id="path5081"
         d="m 560.50839,1173.328 c 0.50508,0.1262 6.69227,-0.1263 6.69227,-0.1263 0,0 19.95051,20.8344 51.77031,20.8344 31.81981,0 64.77604,-19.0667 64.77604,-19.0667 49.33151,14.6642 95.76462,23.327 141.42135,30.3046 8.02582,-24.2356 5.77948,-46.9801 -7.07107,-68.1853 l -5.55584,1.7678 c 11.98932,19.7203 15.78582,40.0474 9.59645,61.1142 -46.18453,-6.3895 -92.1639,-16.4719 -138.01209,-28.9156 0,0 -34.72399,18.1828 -64.14468,18.1828 -29.4207,0 -50.12882,-19.698 -50.12882,-19.698 l -7.57615,-0.2526 -4.67195,2.1466 z"
         style="fill:#84b6e1;fill-opacity:1;stroke:none" />
      <path
         sodipodi:nodetypes="ccccc"
         inkscape:connector-curvature="0"
         id="path5083"
         d="m 394.47218,1078.8939 c 0.93873,3.5635 115.55811,-7.7899 115.90739,-11.632 l -2.0203,7.0711 c -36.78639,2.7643 -73.57278,6.8363 -110.35917,11.6168 z"
         style="fill:#84b6e1;fill-opacity:1;stroke:none" />
      <path
         sodipodi:nodetypes="ccccc"
         inkscape:connector-curvature="0"
         id="path5085"
         d="m 417.193,1167.4438 c -12.89521,4.2074 -25.62474,8.8291 -39.4212,10.7834 l -7.6014,6.5407 c 18.208,-2.8983 36.416,-8.2546 54.624,-13.435 z"
         style="fill:#84b6e1;fill-opacity:1;stroke:none" />
      <path
         sodipodi:nodetypes="csccscc"
         inkscape:connector-curvature="0"
         id="path5170"
         d="m 399.51533,1163.0244 c -37.83021,37.8302 -78.48045,42.7306 -88.03479,33.4108 -6.49166,-6.3323 16.79379,-37.4766 25.10229,-47.5529 l 3.88908,2.4748 c -14.14214,15.3796 -27.75394,37.4767 -25.63262,41.3658 2.12132,3.8891 38.7141,10.9602 80.25662,-32.5269 z"
         style="fill:#84b6e1;fill-opacity:1;stroke:none" />
      <path
         sodipodi:nodetypes="csccscc"
         inkscape:connector-curvature="0"
         id="path5180"
         d="m 338.17382,1095.1421 c -11.31371,-5.6569 -36.13731,-43.7129 -30.75915,-50.5581 13.59497,-17.3033 77.95852,10.7834 92.98454,41.3658 l -5.3033,0.5303 c -23.68808,-36.5928 -73.98952,-49.9149 -83.4386,-38.8909 -4.24264,4.9498 21.56676,40.6587 31.64303,46.6691 -4.06586,1.4142 -5.12652,0.8838 -5.12652,0.8838 z"
         style="fill:#84b6e1;fill-opacity:1;stroke:none" />
      <g
         id="g5125">
        <path
           style="fill:#3a93cc;fill-opacity:1;stroke:none"
           d="m 285.14081,1115.6482 c 31.75,33.25 125.58772,69.3143 135.58772,71.0643 -11.37416,-9.1258 -23.19761,-16.0052 -34.1179,-27.4004 17.00665,4.2585 54.2185,27.0495 105.89464,27.6049 36.34811,0.3907 75.92784,-11.8087 104.46963,-48.8181 -35.10587,24.5066 -77.36989,6.3617 -106.06602,0.1768 8.76953,-3.123 31.89121,-2.2598 47.90649,-13.9654 -56.63802,-0.9321 -100.24117,-15.5787 -128.51666,-19.2686 10.85177,-5.0157 27.86833,-5.4866 42.07285,-7.7782 -25.10229,-7.7782 -65.58415,-32.8805 -167.23075,18.3847 z"
           id="path5116"
           inkscape:connector-curvature="0"
           sodipodi:nodetypes="cccscccccc" />
        <path
           style="fill:#66b360;fill-opacity:1;stroke:none"
           d="m 389.21875,1090.5938 c -50.81426,0.6492 -90.22877,21.7468 -95.0625,26.7187 2.83254,3.3773 19.72555,16.274 42.84375,29.0937 107.41843,2.9427 136.87731,24.9668 181.21875,4.0938 -19.14206,-4.3941 -35.43598,-10.3056 -38.09375,-13.2812 11.31371,-2.0408 34.64324,-4.8872 42.15625,-9.5626 -48.08326,0.884 -92.44888,-19.534 -123.03125,-21.125 7.15469,-3.155 18.70118,-6.7458 34.8125,-10.8437 -15.50663,-3.8283 -30.61576,-5.2755 -44.84375,-5.0937 z"
           id="path5106"
           inkscape:connector-curvature="0" />
        <path
           style="fill:#e9e6a5;fill-opacity:1;stroke:none"
           d="m 389.21875,1090.5938 c -50.81426,0.6492 -90.22877,21.7468 -95.0625,26.7187 2.12638,2.5353 12.22379,10.4568 26.875,19.6563 56.02381,1.7295 148.67371,7.5926 166.78125,-11.875 -34.4974,-5.3901 -65.45916,-17.3606 -88.5625,-18.5626 7.15469,-3.155 18.70118,-6.7458 34.8125,-10.8437 -15.50663,-3.8283 -30.61576,-5.2755 -44.84375,-5.0937 z"
           id="path5101"
           inkscape:connector-curvature="0" />
        <path
           style="fill:#e7724c;fill-opacity:1;stroke:none"
           d="m 389.21875,1090.5938 c -50.81426,0.6492 -90.22877,21.7468 -95.0625,26.7187 1.23707,1.475 5.21422,4.8221 11.15625,9.125 21.64588,3.2118 83.40453,7.1104 132.03125,-12.6875 -14.1747,-3.5976 -27.0439,-6.6439 -38.09375,-7.2188 7.15469,-3.155 18.70118,-6.7458 34.8125,-10.8437 -15.50663,-3.8283 -30.61576,-5.2755 -44.84375,-5.0937 z"
           id="path5096"
           inkscape:connector-curvature="0" />
        <path
           style="fill:#e55153;fill-opacity:1;stroke:none"
           d="m 389.21875,1090.5938 c -45.59523,0.5825 -81.97705,17.6306 -92.46875,24.7187 40.39179,10.7714 77.53147,5.7943 111.96875,-23.9375 -6.64608,-0.6261 -13.1635,-0.8622 -19.5,-0.7812 z"
           id="path5091"
           inkscape:connector-curvature="0" />
        <path
           style="fill:#6a4986;fill-opacity:1;stroke:none"
           d="m 579.125,1152.7812 c -6.87346,3.0024 -17.08146,3.6243 -28.375,2.8438 -34.55246,23.4182 -74.00046,17.2399 -112.875,14.4375 19.73178,5.0098 40.66798,9.0625 56.84375,9.0625 42.5148,0 66.5518,-12.2016 84.40625,-26.3438 z"
           id="path5120"
           inkscape:connector-curvature="0" />
      </g>
      <g
         id="g5172">
        <path
           style="fill:#3a93cc;fill-opacity:1;stroke:none"
           d="m 973.42087,1074.9012 c -5.25,-4.5 -40.98491,-3.8488 -50.73491,-6.0988 16.98329,-7.3523 82.43084,-29.9526 117.73324,-9.7227 0.5,-15.25 -34.1179,-26.7817 -34.1179,-26.7817 0,0 63.8879,-23.0175 79.6379,28.1075 2.1467,-8.7504 0.2207,-17.5009 -1.149,-26.2513 13.2382,27.9162 3.6188,54.9217 -8.7505,77.9585 31.9201,-41.3361 43.0759,-82.1855 -9.8111,-121.53397 0,0 20.8597,5.39172 45.962,42.16127 -6.8943,-19.799 -28.903,-77.07467 -148.58084,-77.07467 -111.54609,0 -158.20562,75.53847 -169.70562,85.91347 -0.35355,-8.6621 28.11054,-53.65217 39.59798,-65.58415 -54.8552,7.41286 -71.14166,138.03225 -153.33279,138.03225 -33.94112,0 -60.03668,-11.1066 -60.03668,6.3943 0,17.5009 47.90648,40.1283 102.53048,40.1283 109.374,0 141.50774,-74.6483 250.75774,-85.6483 z"
           id="path5168"
           inkscape:connector-curvature="0"
           sodipodi:nodetypes="cccccccccsccsssc" />
        <path
           style="fill:#66b360;fill-opacity:1;stroke:none"
           d="m 1004.8125,980.9375 c -168.99849,0 -185.79493,142.125 -313.78125,142.125 -24.63446,0 -39.39313,-3.4141 -48.21875,-7.75 -9.87989,-0.7775 -17.59375,-0.1796 -17.59375,5.0625 0,14.7753 46.36091,35.75 95.65625,35.75 110.375,0 137.07664,-70.0858 229.5,-80.75 -8.5,-2.125 -49.25,0 -49.25,0 2,-3.875 55.125,-36.25 128.5,-25.25 -6.375,-7.875 -36.25,-17.375 -37,-19.625 12.125,-1.75 63.5,-17.375 87.125,7.125 -2.25,-8.625 -10.1753,-18.7396 -20.375,-24.625 35.75,8.75 33.75,39.375 36.375,49.25 8.5869,-32.9968 -16.6509,-56.3517 -30.25,-67.03125 -11.994,-6.18932 -32.9441,-14.28125 -60.6875,-14.28125 z"
           id="path5160"
           inkscape:connector-curvature="0" />
        <path
           style="fill:#e9e6a5;fill-opacity:1;stroke:none"
           d="m 1011.875,1001.25 c -53.6482,0.2234 -126.23441,24.5528 -170.78125,67.0938 -51.79566,49.4632 -130.54034,96.9668 -215.03125,49.4374 -0.558,0.6983 -0.84375,1.5581 -0.84375,2.5938 0,14.7753 46.36091,35.75 95.65625,35.75 110.375,0 137.07664,-70.0858 229.5,-80.75 -8.5,-2.125 -49.25,0 -49.25,0 2,-3.875 55.125,-36.25 128.5,-25.25 -6.375,-7.875 -36.25,-17.375 -37,-19.625 12.125,-1.75 63.5,-17.375 87.125,7.125 -2.25,-8.625 -10.1753,-18.7396 -20.375,-24.625 3.2381,0.7925 6.1623,1.7552 8.8125,2.875 -12.2205,-10.0115 -32.3823,-14.7246 -56.3125,-14.625 z"
           id="path5154"
           inkscape:connector-curvature="0" />
        <path
           style="fill:#e7724c;fill-opacity:1;stroke:none"
           d="m 1005.6875,1025.2188 c -162.61196,0.6301 -164.7923,135.979 -326.53125,126.125 12.9123,2.9496 27.18429,4.7812 41.71875,4.7812 110.375,0 137.07664,-70.0858 229.5,-80.75 -8.5,-2.125 -49.25,0 -49.25,0 2,-3.875 55.125,-36.25 128.5,-25.25 -6.375,-7.875 -36.25,-17.375 -37,-19.625 4.57778,-0.6607 14.7446,-3.3211 26.9062,-5.0312 -4.7435,-0.1942 -9.3518,-0.2675 -13.8437,-0.25 z"
           id="path5149"
           inkscape:connector-curvature="0" />
        <path
           style="fill:#e55153;fill-opacity:1;stroke:none"
           d="m 1010.9375,1039.9688 c -130.8326,1.0486 -160.64233,83.1327 -253.5,113.3124 81.19978,-13.2199 111.67229,-68.5295 192.9375,-77.9062 -8.5,-2.125 -49.25,0 -49.25,0 2,-3.875 55.125,-36.25 128.5,-25.25 -2.683,-3.3143 -9.5401,-6.9279 -16.625,-10.1562 -0.6825,10e-4 -1.3854,-0.01 -2.0625,0 z"
           id="path5133"
           inkscape:connector-curvature="0" />
        <path
           style="fill:#6a4986;fill-opacity:1;stroke:none"
           d="m 965.75,961.625 c -109.375,0 -167.125,81 -182.375,97.25 10,-35.625 24.125,-50.25 31.5,-65.75 -28.54756,22.4773 -44.03571,84.45 -89.09375,108.1875 -2.67258,1.408 -5.79266,2.984 -9.09375,4.5937 90.67393,-15.8254 104.2896,-120.03116 271.69943,-144.27048 -3.71201,-0.11571 -18.66035,-0.0107 -22.63693,-0.0107 z"
           id="path5165"
           inkscape:connector-curvature="0"
           sodipodi:nodetypes="sccsccs" />
      </g>
      <path
         sodipodi:nodetypes="cssccsscc"
         inkscape:connector-curvature="0"
         id="path5190"
         d="m 311.7457,1191.5738 c 0,0 -103.37141,11.8825 -113.04869,6.8943 -11.31739,-5.8336 -24.04011,-45.6569 -17.85445,-51.7956 3.65685,-3.6291 54.94919,2.658 68.32419,2.033 l -8.75044,-5.7453 c -13.75057,0 -58.15369,-6.3576 -64.13073,-1.6579 -7.68719,6.0444 1.45759,55.2318 19.84816,62.5575 21.30159,8.4853 116.8494,-8.5737 116.8494,-8.5737 z"
         style="fill:#84b6e1;fill-opacity:1;stroke:none" />
      <path
         inkscape:connector-curvature="0"
         id="path5232"
         d="m 292.49372,1062.4399 c 0,0 6.0625,-12.3125 7.25,-12 1.1875,0.3125 -4.875,13.5 -4.875,13.5 z"
         style="fill:#000000;fill-opacity:1;stroke:none" />
      <path
         inkscape:connector-curvature="0"
         id="path5230"
         d="m 295.5,1065.1122 c 0,0 10.1875,-12.125 11.375,-11.5 1.1875,0.625 -9.5,13.6875 -9.5,13.6875 z"
         style="fill:#000000;fill-opacity:1;stroke:none" />
      <path
         sodipodi:nodetypes="ccsccccc"
         inkscape:connector-curvature="0"
         id="path5228"
         d="m 260.9375,1109.9247 c -4.41961,-1.3335 -9.74278,-3.0639 -13.5,-7.875 0,0 2.4375,-8.75 2.6875,-9.5 0.25,-0.75 14.9375,-17.9375 14.9375,-17.9375 l 24.3125,-15.625 c 5.81798,2.9589 8.16268,6.2833 10.9375,9.5625 L 277.5,1092.4872 z"
         style="fill:#ffffff;fill-opacity:1;stroke:none" />
      <path
         sodipodi:nodetypes="cssccsscc"
         inkscape:connector-curvature="0"
         id="path5192"
         d="m 438.625,1077.8622 c -43.125,-42.5 -177.375,-84.75002 -204.25,-84.75002 -26.125,0 -50.81795,47.34972 -48.75,51.75002 6.71122,14.2807 47.5,1 95.5,17.25 l 6.125,-2.625 c -37.625,-14.5 -92.75,-10.75 -96.75,-16.125 -4,-5.375 28.99292,-46.88754 44,-46.00002 23.25,1.375 152.75,39.00002 199.125,81.37502 z"
         style="fill:#84b6e1;fill-opacity:1;stroke:none" />
      <path
         sodipodi:nodetypes="czcc"
         inkscape:connector-curvature="0"
         id="path5196"
         d="m 299.875,1180.0497 c 0,0 10.46744,11.7081 11.6875,10 1.22006,-1.7081 -9.25,-12.375 -9.25,-12.375 z"
         style="fill:#000000;fill-opacity:1;stroke:none" />
      <path
         sodipodi:nodetypes="cccccccsc"
         inkscape:connector-curvature="0"
         id="path5200"
         d="m 304.5625,1175.9872 c -3.37311,4.7453 -5.58206,6.5801 -7.125,6.75 l -14.25,-4.0625 -12.875,-6.8125 -16.125,-15.3125 -5,-9.375 c 3.08773,-5.6197 6.79424,-8.7561 11.6875,-10.125 0,0 34.8125,29.4375 35.5625,30.25 0.75,0.8125 8.125,8.6875 8.125,8.6875 z"
         style="fill:#ffffff;fill-opacity:1;stroke:none" />
      <path
         inkscape:connector-curvature="0"
         id="path5198"
         d="m 295.90625,1182.831 2.8125,-1.375 c 0,0 7,12 5.375,12.5625 -1.625,0.5625 -8.1875,-11.1875 -8.1875,-11.1875 z"
         style="fill:#000000;fill-opacity:1;stroke:none" />
      <path
         sodipodi:nodetypes="ccccc"
         inkscape:connector-curvature="0"
         id="path5214"
         d="m 293.875,1166.0497 c -0.0891,5.5632 -2.78623,10.02 -8.375,13.25 l -14.125,-7.6875 10.8125,-17.3125 z"
         style="fill:#c4418d;fill-opacity:1;stroke:none" />
      <path
         id="path5202"
         d="m 260.875,1137.0625 c -4.89326,1.3689 -8.59977,4.5053 -11.6875,10.125 l 5,9.375 1.6875,1.5937 19.8125,16.5626 0.21875,0.125 c 5.03299,-3.6073 8.03588,-8.9032 8.09375,-16.6563 l -5.375,-6.0937 c -8.8893,-7.5398 -17.75,-15.0313 -17.75,-15.0313 z"
         style="fill:#000000;fill-opacity:1;stroke:none"
         inkscape:connector-curvature="0" />
      <path
         transform="matrix(1.081457,-0.32556397,0.35376712,0.99524075,-430.0165,91.346329)"
         d="m 265.1875,1157.2997 c 0,2.2436 -1.37113,4.0625 -3.0625,4.0625 -1.69137,0 -3.0625,-1.8189 -3.0625,-4.0625 0,-2.2437 1.37113,-4.0625 3.0625,-4.0625 1.69137,0 3.0625,1.8188 3.0625,4.0625 z"
         sodipodi:ry="4.0625"
         sodipodi:rx="3.0625"
         sodipodi:cy="1157.2997"
         sodipodi:cx="262.125"
         id="path5204"
         style="fill:#ffffff;fill-opacity:1;stroke:none"
         sodipodi:type="arc" />
      <path
         id="path5206"
         d="m 268.65625,1143.6562 c -0.25956,0.1654 -0.48458,0.324 -0.71875,0.5313 -3.46816,3.0709 -2.66954,9.6461 1.78125,14.6563 4.45079,5.0101 10.84434,6.5708 14.3125,3.5 1.12882,-0.9996 1.81622,-2.3738 2.0625,-3.9376 -6.96697,-5.9249 -12.17462,-10.2958 -17.4375,-14.75 z"
         style="fill:#ffffff;fill-opacity:1;stroke:none"
         inkscape:connector-curvature="0" />
      <path
         sodipodi:nodetypes="zccccscz"
         inkscape:connector-curvature="0"
         id="path5188"
         d="m 316.60706,1179.7298 c 0.93742,-1.152 -9.36917,-4.5079 -11.93243,-7.2479 0,0 -47.8181,-42.9567 -49.32069,-44.8128 0.53033,-0.9723 11.04854,-2.2098 11.57887,-2.7401 -0.26517,-0.8839 -2.91505,-3.3494 -3.35876,-3.2704 -12.27189,2.378 -13.16986,1.591 -13.16986,5.4801 0,5.0141 54.04948,49.4533 54.04948,49.4533 4.33102,2.2981 11.21597,4.2898 12.15339,3.1378 z"
         style="fill:#000000;fill-opacity:1;stroke:none" />
      <path
         id="path5246"
         d="m 282.1875,1063.625 -11.9375,7.6875 12.375,15.7813 13.375,-14 c -2.96008,-4.306 -6.49822,-8.2108 -13.8125,-9.4688 z"
         style="fill:#c4418d;fill-opacity:1;stroke:none"
         inkscape:connector-curvature="0" />
      <path
         id="path5241"
         d="m 274.09375,1068.8125 -9.03125,5.8125 c 0,0 -14.6875,17.1875 -14.9375,17.9375 -0.25,0.75 -2.6875,9.5 -2.6875,9.5 3.68644,4.7205 8.8811,6.4573 13.25,7.7813 l 25,-26.5313 c -0.11066,-5.5402 -3.51185,-11.8001 -11.59375,-14.5 z"
         style="fill:#000000;fill-opacity:1;stroke:none"
         inkscape:connector-curvature="0" />
      <path
         transform="matrix(0.98395617,0.17841034,-0.17841034,0.98395617,199.15662,-28.601664)"
         d="m 263.1875,1089.0497 c 0,2.4162 -1.42709,4.375 -3.1875,4.375 -1.76041,0 -3.1875,-1.9588 -3.1875,-4.375 0,-2.4163 1.42709,-4.375 3.1875,-4.375 1.76041,0 3.1875,1.9587 3.1875,4.375 z"
         sodipodi:ry="4.375"
         sodipodi:rx="3.1875"
         sodipodi:cy="1089.0497"
         sodipodi:cx="260"
         id="path5234"
         style="fill:#ffffff;fill-opacity:1;stroke:none"
         sodipodi:type="arc" />
      <path
         id="path5236"
         d="m 278.1875,1082.5625 c -3.20831,0.09 -7.64156,2.7937 -10.9375,6.9063 -4.05654,5.0616 -4.84112,10.3605 -1.75,11.8124 0.95164,0.4471 2.16552,0.4738 3.5,0.1563 l 8.5,-8.9375 4.4375,-4.6562 c 0.43211,-2.2956 -0.12286,-4.142 -1.75,-4.9063 -0.57958,-0.2722 -1.25962,-0.3958 -2,-0.375 z"
         style="fill:#ffffff;fill-opacity:1;stroke:none"
         inkscape:connector-curvature="0" />
      <path
         sodipodi:nodetypes="cccsccccscc"
         inkscape:connector-curvature="0"
         id="path5194"
         d="m 298.5,1181.3622 c -0.32108,1.0784 -0.1599,2.2372 -2.375,3 C 271,1182.9247 250,1156.0497 247,1147.8622 c -9,-3.25 -21.125,-5.875 -21.125,-24.5 0,-18.875 12,-18.5 19.125,-22.75 -0.625,-5.75 18.03125,-35.5 47.90625,-44.625 0.61336,0.4529 1.61592,-0.028 1.46875,2.25 -31.375,14.375 -44.4375,34.0625 -45.875,46.0625 -7.75,2.625 -18.1875,4.25 -18.1875,19.375 0,14.75 9.3125,17.875 19.5625,22.25 11.25,21.4375 36.25,34 48.625,35.4375 z"
         style="fill:#84b6e1;fill-opacity:1;stroke:none" />
      <path
         sodipodi:nodetypes="cccscccc"
         inkscape:connector-curvature="0"
         id="path5226"
         d="m 267.625,1117.1122 -10.4375,-1.1875 42.6875,-44.6875 c 0,0 12.25,-7.25 11.125,-8.75 -1.125,-1.5 -12.375,5.625 -12.375,5.625 l -48.375,50 c 0.5625,1 16,2.375 16,2.375 1.76526,-1.3626 1.34466,-2.3278 1.375,-3.375 z"
         style="fill:#000000;fill-opacity:1;stroke:none" />
    </g>
  </g>
</svg>
